<svg xmlns="http://www.w3.org/2000/svg" width="18" height="16" viewBox="0 0 18 16">
  <g id="Grupo_182618" data-name="Grupo 182618" transform="translate(-1964 -879)">
    <g id="Vector" transform="translate(1964 879)" fill="none">
      <path d="M9,16,7.7,14.849C3.06,10.777,0,8.083,0,4.8A4.822,4.822,0,0,1,4.95,0,5.486,5.486,0,0,1,9,1.814,5.486,5.486,0,0,1,13.05,0,4.822,4.822,0,0,1,18,4.8c0,3.287-3.06,5.981-7.695,10.053Z" stroke="none"/>
      <path d="M 9.000002861022949 14.66664409637451 L 9.645000457763672 14.0977897644043 C 14.07402038574219 10.20680046081543 17 7.636270046234131 17 4.795639991760254 C 17 2.667239904403687 15.26494979858398 1 13.05000019073486 1 C 11.80189037322998 1 10.56770038604736 1.552049994468689 9.748519897460938 2.476730108261108 L 9 3.321660041809082 L 8.251480102539062 2.476730108261108 C 7.432300090789795 1.552049994468689 6.198110103607178 1 4.949999809265137 1 C 2.735049962997437 1 1 2.667239904403687 1 4.795639991760254 C 1 7.636270046234131 3.925980091094971 10.20680046081543 8.356450080871582 14.09906005859375 L 9.000002861022949 14.66664409637451 M 9 16 L 7.695000171661377 14.84904956817627 C 3.059999942779541 10.77711009979248 0 8.082830429077148 0 4.795639991760254 C 0 2.101360082626343 2.177999973297119 0 4.949999809265137 0 C 6.515999794006348 0 8.019000053405762 0.7062699794769287 9 1.81361997127533 C 9.980999946594238 0.7062699794769287 11.48400020599365 0 13.05000019073486 0 C 15.82199954986572 0 18 2.101360082626343 18 4.795639991760254 C 18 8.082830429077148 14.9399995803833 10.77711009979248 10.30500030517578 14.84904956817627 L 9 16 Z" stroke="none" fill="#6a2749"/>
    </g>
  </g>
</svg>
